<mxfile host="app.diagrams.net" agent="Mozilla/5.0 (Macintosh; Intel Mac OS X 10_15_7) AppleWebKit/537.36 (KHTML, like Gecko) Chrome/132.0.0.0 Safari/537.36" version="26.0.11">
  <diagram name="페이지-1" id="pJFXeUfrOZDQJaGf4EEy">
    <mxGraphModel dx="574" dy="734" grid="0" gridSize="10" guides="0" tooltips="1" connect="1" arrows="1" fold="1" page="0" pageScale="1" pageWidth="827" pageHeight="1169" math="0" shadow="0">
      <root>
        <mxCell id="0" />
        <mxCell id="1" parent="0" />
        <mxCell id="FF7xb8OBf-z3pc8I-94P-4" value="" style="edgeStyle=none;curved=1;rounded=0;orthogonalLoop=1;jettySize=auto;html=1;fontSize=12;endArrow=none;startFill=0;shape=link;exitX=1;exitY=0.5;exitDx=0;exitDy=0;" parent="1" source="YlHFf2ys7z0UBV_sVxyH-1" target="FF7xb8OBf-z3pc8I-94P-2" edge="1">
          <mxGeometry relative="1" as="geometry" />
        </mxCell>
        <mxCell id="FF7xb8OBf-z3pc8I-94P-6" value="N" style="edgeLabel;html=1;align=center;verticalAlign=middle;resizable=0;points=[];fontSize=12;" parent="FF7xb8OBf-z3pc8I-94P-4" vertex="1" connectable="0">
          <mxGeometry x="-0.4143" y="2" relative="1" as="geometry">
            <mxPoint x="-4" y="-8" as="offset" />
          </mxGeometry>
        </mxCell>
        <mxCell id="FF7xb8OBf-z3pc8I-94P-2" value="지도" style="rhombus;whiteSpace=wrap;html=1;" parent="1" vertex="1">
          <mxGeometry x="140" y="160" width="63" height="55" as="geometry" />
        </mxCell>
        <mxCell id="FF7xb8OBf-z3pc8I-94P-5" value="" style="edgeStyle=none;curved=1;rounded=0;orthogonalLoop=1;jettySize=auto;html=1;fontSize=12;endArrow=none;startFill=0;exitX=0;exitY=0.5;exitDx=0;exitDy=0;" parent="1" source="YlHFf2ys7z0UBV_sVxyH-3" target="FF7xb8OBf-z3pc8I-94P-2" edge="1">
          <mxGeometry relative="1" as="geometry" />
        </mxCell>
        <mxCell id="YlHFf2ys7z0UBV_sVxyH-1" value="학생" style="rounded=0;whiteSpace=wrap;html=1;" vertex="1" parent="1">
          <mxGeometry x="40" y="169.5" width="55" height="36" as="geometry" />
        </mxCell>
        <mxCell id="YlHFf2ys7z0UBV_sVxyH-3" value="교수" style="rounded=0;whiteSpace=wrap;html=1;" vertex="1" parent="1">
          <mxGeometry x="248" y="169.5" width="55" height="36" as="geometry" />
        </mxCell>
        <mxCell id="YlHFf2ys7z0UBV_sVxyH-4" value="" style="edgeStyle=none;curved=1;rounded=0;orthogonalLoop=1;jettySize=auto;html=1;fontSize=12;endArrow=none;startFill=0;shape=link;exitX=1;exitY=0.5;exitDx=0;exitDy=0;" edge="1" parent="1" source="YlHFf2ys7z0UBV_sVxyH-8" target="YlHFf2ys7z0UBV_sVxyH-6">
          <mxGeometry relative="1" as="geometry" />
        </mxCell>
        <mxCell id="YlHFf2ys7z0UBV_sVxyH-5" value="1" style="edgeLabel;html=1;align=center;verticalAlign=middle;resizable=0;points=[];fontSize=12;" vertex="1" connectable="0" parent="YlHFf2ys7z0UBV_sVxyH-4">
          <mxGeometry x="-0.4143" y="2" relative="1" as="geometry">
            <mxPoint x="9" y="-8" as="offset" />
          </mxGeometry>
        </mxCell>
        <mxCell id="YlHFf2ys7z0UBV_sVxyH-6" value="생산" style="rhombus;whiteSpace=wrap;html=1;" vertex="1" parent="1">
          <mxGeometry x="138" y="245" width="63" height="55" as="geometry" />
        </mxCell>
        <mxCell id="YlHFf2ys7z0UBV_sVxyH-7" value="" style="edgeStyle=none;curved=1;rounded=0;orthogonalLoop=1;jettySize=auto;html=1;fontSize=12;endArrow=none;startFill=0;exitX=0;exitY=0.5;exitDx=0;exitDy=0;" edge="1" parent="1" source="YlHFf2ys7z0UBV_sVxyH-9" target="YlHFf2ys7z0UBV_sVxyH-6">
          <mxGeometry relative="1" as="geometry" />
        </mxCell>
        <mxCell id="YlHFf2ys7z0UBV_sVxyH-10" value="N" style="edgeLabel;html=1;align=center;verticalAlign=middle;resizable=0;points=[];fontSize=12;" vertex="1" connectable="0" parent="YlHFf2ys7z0UBV_sVxyH-7">
          <mxGeometry x="0.2" y="-3" relative="1" as="geometry">
            <mxPoint x="1" y="-8" as="offset" />
          </mxGeometry>
        </mxCell>
        <mxCell id="YlHFf2ys7z0UBV_sVxyH-8" value="기계" style="rounded=0;whiteSpace=wrap;html=1;" vertex="1" parent="1">
          <mxGeometry x="38" y="254.5" width="55" height="36" as="geometry" />
        </mxCell>
        <mxCell id="YlHFf2ys7z0UBV_sVxyH-9" value="물품종류" style="rounded=0;whiteSpace=wrap;html=1;" vertex="1" parent="1">
          <mxGeometry x="246" y="254.5" width="62" height="36" as="geometry" />
        </mxCell>
      </root>
    </mxGraphModel>
  </diagram>
</mxfile>
